# xmcd
#
# Track frame offsets:
#	150
#	14280
#	29223
#	42731
#	58410
#	70282
#	82872
#	96083
#	111224
#	125538
#	138409
#	152124
#	166127
#	178835
#	194034
#	207954
#	220471
#	234497
#	246352
#	260039
#	274967
#	289031
#	301156
#	313706
#
# Disc length: 4337 seconds
# Revision: 3
# Processed by: cddbd v1.5.2PL0 Copyright (c) Steve Scherf et al.
# Submitted via: dBpowerAMP V12.0
#
DISCID=7a10ef18
DTITLE=Various Artist - Bed Spring Poker - Meat In Motion 1926-1951 [CD 2)
DYEAR=1936
DGENRE=Blues
TTITLE0=Jazz Gillum - Sarah Jane
TTITLE1=John Lee Hooker - My Daddy Was A Jockey
TTITLE2=Hattie Hart - I Let My Daddy Do That
TTITLE3=Walter Roland - I'm Gonna Shave You Dry
TTITLE4=Lee Brown - Carpenter Man Blues
TTITLE5=Ethel Waters - Get Up Off Your Knees
TTITLE6=Bobo Thomas - Catfish Blues
TTITLE7=Jimmie Gordon - Bed Spring Blues
TTITLE8=Barrel House Annie - Love Operation
TTITLE9=Charlie Pickett - Let Me Squeeze Your Lemon
TTITLE10=Lil Johnson - Sam The Hot Dog Man
TTITLE11=Al Miller - I Found Your Keyhole
TTITLE12=Edith Johnson - Eight Hour Woman
TTITLE13=Champion Jack Dupree - I Think You Need A Shot
TTITLE14=Victoria Spivey - Good Cabbage
TTITLE15=James Stump Johnson - Don't Give My Lard Away
TTITLE16=Clara Smith - Ain't Got Nobody To Grind My Coffee
TTITLE17=Roosevelt Sykes - Bread Pan
TTITLE18=Minnie Wallace - Dirty Butter
TTITLE19=Bo Carter - Cigarette Blues
TTITLE20=Wynonie Harris - I Want My Fanny Brown
TTITLE21=Eddie Davis - Mountain Oysters
TTITLE22=Bull Moose Jackson - I Want A Bowlegged Woman
TTITLE23=The Swallows - It Ain't The Meat
EXTD=
EXTT0=
EXTT1=
EXTT2=
EXTT3=
EXTT4=
EXTT5=
EXTT6=
EXTT7=
EXTT8=
EXTT9=
EXTT10=
EXTT11=
EXTT12=
EXTT13=
EXTT14=
EXTT15=
EXTT16=
EXTT17=
EXTT18=
EXTT19=
EXTT20=
EXTT21=
EXTT22=
EXTT23=
PLAYORDER=
